mtllib mat_5.004.mtl
usemtl mat_5.004
v 0.00418900 -0.19611200 -0.72769700
v 0.00368000 -0.19680000 -0.72769700
v 0.00306000 -0.19739000 -0.72769700
v 0.00234700 -0.19786300 -0.72769700
v 0.00156200 -0.19820500 -0.72769700
v 0.00156200 -0.19820500 -0.72769700
v 0.00073000 -0.19840600 -0.72769700
v 0.00073000 -0.19840600 -0.72769700
v -0.00012400 -0.19845900 -0.72769700
v -0.00097500 -0.19836200 -0.72769700
v -0.00179600 -0.19812000 -0.72769700
v -0.00256200 -0.19773900 -0.72769700
v -0.00325000 -0.19723000 -0.72769700
v -0.00384000 -0.19661000 -0.72769700
v -0.00431300 -0.19589700 -0.72769700
v -0.00465500 -0.19511200 -0.72769700
v -0.00485500 -0.19428000 -0.72769700
v -0.00485500 -0.19428000 -0.72769700
v -0.00490800 -0.19342600 -0.72769700
v -0.00481200 -0.19257500 -0.72769700
v -0.00457000 -0.19175500 -0.72769700
v -0.00418900 -0.19098800 -0.72769700
v 0.00418900 -0.19611200 -0.72469700
v 0.00418900 -0.19611200 -0.72469700
v 0.00368000 -0.19680000 -0.72469700
v 0.00306000 -0.19739000 -0.72469700
v 0.00234700 -0.19786300 -0.72469700
v 0.00156200 -0.19820500 -0.72469700
v 0.00156200 -0.19820500 -0.72469700
v 0.00073000 -0.19840600 -0.72469700
v -0.00012400 -0.19845900 -0.72469700
v -0.00097500 -0.19836200 -0.72469700
v -0.00179600 -0.19812000 -0.72469700
v -0.00256200 -0.19773900 -0.72469700
v -0.00325000 -0.19723000 -0.72469700
v -0.00384000 -0.19661000 -0.72469700
v -0.00431300 -0.19589700 -0.72469700
v -0.00465500 -0.19511200 -0.72469700
v -0.00485500 -0.19428000 -0.72469700
v -0.00490800 -0.19342600 -0.72469700
v -0.00481200 -0.19257500 -0.72469700
v -0.00457000 -0.19175500 -0.72469700
v -0.00418900 -0.19098800 -0.72469700
v 0.00418900 -0.19611200 -0.72769700
v 0.00418900 -0.19611200 -0.72469700
v -0.00418900 -0.19098800 -0.72769700
v -0.00368000 -0.19030000 -0.72769700
v -0.00306000 -0.18971000 -0.72769700
v -0.00234700 -0.18923700 -0.72769700
v -0.00156200 -0.18889500 -0.72769700
v -0.00073000 -0.18869500 -0.72769700
v 0.00012400 -0.18864200 -0.72769700
v 0.00097500 -0.18873800 -0.72769700
v 0.00179600 -0.18898000 -0.72769700
v 0.00256200 -0.18936100 -0.72769700
v 0.00256200 -0.18936100 -0.72769700
v 0.00325000 -0.18987000 -0.72769700
v 0.00384000 -0.19049000 -0.72769700
v 0.00431300 -0.19120400 -0.72769700
v 0.00465500 -0.19198800 -0.72769700
v 0.00465500 -0.19198800 -0.72769700
v 0.00485500 -0.19282000 -0.72769700
v 0.00485500 -0.19282000 -0.72769700
v 0.00490800 -0.19367400 -0.72769700
v 0.00481200 -0.19452500 -0.72769700
v 0.00457000 -0.19534600 -0.72769700
v -0.00418900 -0.19098800 -0.72469700
v -0.00368000 -0.19030000 -0.72469700
v -0.00306000 -0.18971000 -0.72469700
v -0.00234700 -0.18923700 -0.72469700
v -0.00156200 -0.18889500 -0.72469700
v -0.00073000 -0.18869500 -0.72469700
v 0.00012400 -0.18864200 -0.72469700
v 0.00097500 -0.18873800 -0.72469700
v 0.00179600 -0.18898000 -0.72469700
v 0.00256200 -0.18936100 -0.72469700
v 0.00256200 -0.18936100 -0.72469700
v 0.00325000 -0.18987000 -0.72469700
v 0.00384000 -0.19049000 -0.72469700
v 0.00431300 -0.19120400 -0.72469700
v 0.00465500 -0.19198800 -0.72469700
v 0.00485500 -0.19282000 -0.72469700
v 0.00485500 -0.19282000 -0.72469700
v 0.00490800 -0.19367400 -0.72469700
v 0.00481200 -0.19452500 -0.72469700
v 0.00457000 -0.19534600 -0.72469700
vn 0.85310000 -0.52170000 -0.00000000
vn 0.74950000 -0.66200000 -0.00000000
vn 0.62320000 -0.78210000 -0.00000000
vn 0.47790000 -0.87840000 -0.00000000
vn 0.31810000 -0.94810000 -0.00000000
vn 0.31810000 -0.94800000 -0.00000000
vn 0.14870000 -0.98890000 -0.00000000
vn 0.14860000 -0.98890000 -0.00000000
vn -0.02530000 -0.99970000 -0.00000000
vn -0.19850000 -0.98010000 -0.00000000
vn -0.36570000 -0.93070000 -0.00000000
vn -0.52170000 -0.85310000 -0.00000000
vn -0.66200000 -0.74950000 -0.00000000
vn -0.78210000 -0.62320000 -0.00000000
vn -0.87840000 -0.47790000 -0.00000000
vn -0.94810000 -0.31810000 -0.00000000
vn -0.98890000 -0.14860000 -0.00000000
vn -0.98890000 -0.14870000 -0.00000000
vn -0.99970000 0.02530000 -0.00000000
vn -0.98010000 0.19850000 -0.00000000
vn -0.93070000 0.36570000 -0.00000000
vn -0.85310000 0.52170000 -0.00000000
vn 0.85310000 -0.52180000 -0.00000000
vn 0.85310000 -0.52170000 -0.00000000
vn 0.74950000 -0.66200000 -0.00000000
vn 0.62320000 -0.78210000 -0.00000000
vn 0.47790000 -0.87840000 -0.00000000
vn 0.31810000 -0.94810000 -0.00000000
vn 0.31810000 -0.94800000 -0.00000000
vn 0.14870000 -0.98890000 -0.00000000
vn -0.02530000 -0.99970000 -0.00000000
vn -0.19850000 -0.98010000 -0.00000000
vn -0.36570000 -0.93070000 -0.00000000
vn -0.52170000 -0.85310000 -0.00000000
vn -0.66200000 -0.74950000 -0.00000000
vn -0.78210000 -0.62320000 -0.00000000
vn -0.87840000 -0.47790000 -0.00000000
vn -0.94810000 -0.31810000 -0.00000000
vn -0.98890000 -0.14860000 -0.00000000
vn -0.99970000 0.02530000 -0.00000000
vn -0.98010000 0.19850000 -0.00000000
vn -0.93070000 0.36570000 -0.00000000
vn -0.85310000 0.52170000 -0.00000000
vn 0.85310000 -0.52170000 -0.00000000
vn 0.85310000 -0.52170000 -0.00000000
vn -0.85310000 0.52180000 -0.00000000
vn -0.74950000 0.66200000 -0.00000000
vn -0.62320000 0.78210000 -0.00000000
vn -0.47790000 0.87840000 -0.00000000
vn -0.31810000 0.94810000 -0.00000000
vn -0.14870000 0.98890000 -0.00000000
vn 0.02530000 0.99970000 -0.00000000
vn 0.19850000 0.98010000 -0.00000000
vn 0.36570000 0.93070000 -0.00000000
vn 0.52180000 0.85310000 -0.00000000
vn 0.52170000 0.85310000 -0.00000000
vn 0.66200000 0.74950000 -0.00000000
vn 0.78210000 0.62320000 -0.00000000
vn 0.87840000 0.47790000 -0.00000000
vn 0.94800000 0.31820000 -0.00000000
vn 0.94810000 0.31810000 -0.00000000
vn 0.98890000 0.14860000 -0.00000000
vn 0.98890000 0.14870000 -0.00000000
vn 0.99970000 -0.02530000 -0.00000000
vn 0.98010000 -0.19850000 -0.00000000
vn 0.93070000 -0.36570000 -0.00000000
vn -0.85310000 0.52180000 -0.00000000
vn -0.74950000 0.66200000 -0.00000000
vn -0.62320000 0.78210000 -0.00000000
vn -0.47790000 0.87840000 -0.00000000
vn -0.31810000 0.94810000 -0.00000000
vn -0.14870000 0.98890000 -0.00000000
vn 0.02530000 0.99970000 -0.00000000
vn 0.19850000 0.98010000 -0.00000000
vn 0.36570000 0.93070000 -0.00000000
vn 0.52180000 0.85310000 -0.00000000
vn 0.52170000 0.85310000 -0.00000000
vn 0.66200000 0.74950000 -0.00000000
vn 0.78210000 0.62320000 -0.00000000
vn 0.87840000 0.47790000 -0.00000000
vn 0.94810000 0.31810000 -0.00000000
vn 0.98890000 0.14860000 -0.00000000
vn 0.98890000 0.14870000 -0.00000000
vn 0.99970000 -0.02530000 -0.00000000
vn 0.98010000 -0.19850000 -0.00000000
vn 0.93070000 -0.36570000 -0.00000000
f 42//42 22//22 21//21
f 42//42 43//43 22//22
f 41//41 20//20 19//19
f 41//41 21//21 20//20
f 41//41 42//42 21//21
f 40//40 41//41 19//19
f 39//39 19//19 17//17
f 39//39 40//40 19//19
f 38//38 18//18 16//16
f 38//38 39//39 18//18
f 37//37 16//16 15//15
f 37//37 38//38 16//16
f 36//36 14//14 13//13
f 36//36 15//15 14//14
f 36//36 37//37 15//15
f 35//35 36//36 13//13
f 34//34 13//13 12//12
f 34//34 35//35 13//13
f 33//33 12//12 11//11
f 33//33 34//34 12//12
f 32//32 11//11 10//10
f 32//32 33//33 11//11
f 31//31 10//10 9//9
f 31//31 32//32 10//10
f 30//30 9//9 7//7
f 30//30 31//31 9//9
f 29//29 6//6 4//4
f 28//28 8//8 5//5
f 28//28 30//30 7//7
f 27//27 29//29 4//4
f 26//26 4//4 3//3
f 26//26 27//27 4//4
f 25//25 3//3 2//2
f 25//25 26//26 3//3
f 24//24 2//2 1//1
f 23//23 25//25 2//2
f 86//86 45//45 44//44
f 86//86 44//44 66//66
f 85//85 66//66 65//65
f 85//85 86//86 66//66
f 84//84 65//65 64//64
f 84//84 85//85 65//65
f 83//83 63//63 60//60
f 82//82 64//64 62//62
f 83//83 84//84 64//64
f 81//81 83//83 61//61
f 80//80 59//59 58//58
f 80//80 61//61 59//59
f 80//80 81//81 61//61
f 79//79 80//80 58//58
f 78//78 58//58 57//57
f 78//78 79//79 58//58
f 76//76 57//57 55//55
f 76//76 78//78 57//57
f 75//75 56//56 54//54
f 75//75 77//77 56//56
f 74//74 54//54 53//53
f 74//74 75//75 54//54
f 73//73 53//53 52//52
f 73//73 74//74 53//53
f 72//72 52//52 51//51
f 72//72 73//73 52//52
f 71//71 51//51 50//50
f 71//71 72//72 51//51
f 70//70 71//71 50//50
f 70//70 50//50 49//49
f 69//69 49//49 48//48
f 69//69 70//70 49//49
f 68//68 48//48 47//47
f 68//68 69//69 48//48
f 67//67 47//47 46//46
f 67//67 68//68 47//47